<svg viewBox="0 0 512 512">
	<g>
		
		<path d="M407,346H219.623c-10.578-9.325-24.446-15-39.623-15s-29.045,5.675-39.623,15H105c-24.813,0-45,20.187-45,45
			s20.187,45,45,45h35.377c10.578,9.325,24.446,15,39.623,15s29.045-5.675,39.623-15H407c24.813,0,45-20.187,45-45
			S431.813,346,407,346z M121.899,406H105c-8.271,0-15-6.729-15-15s6.729-15,15-15h16.899c-1.239,4.796-1.899,9.822-1.899,15
			C120,396.178,120.66,401.204,121.899,406z M180,421c-16.542,0-30-13.458-30-30s13.458-30,30-30s30,13.458,30,30
			S196.542,421,180,421z M407,406H238.101c1.239-4.796,1.899-9.822,1.899-15c0-5.178-0.66-10.204-1.899-15H407
			c8.271,0,15,6.729,15,15S415.271,406,407,406z"/>
		
	</g>
	<g>
		<path d="M407,211h-35.377c-10.578-9.325-24.446-15-39.623-15s-29.045,5.675-39.623,15H105c-24.813,0-45,20.187-45,45
			s20.187,45,45,45h187.377c10.578,9.325,24.446,15,39.623,15s29.045-5.675,39.623-15H407c24.813,0,45-20.187,45-45
			S431.813,211,407,211z M273.899,271H105c-8.271,0-15-6.729-15-15s6.729-15,15-15h168.899c-1.239,4.796-1.899,9.822-1.899,15
			S272.66,266.204,273.899,271z M332,286c-16.542,0-30-13.458-30-30s13.458-30,30-30s30,13.458,30,30S348.542,286,332,286z M407,271
			h-16.899c1.239-4.796,1.899-9.822,1.899-15c0-5.178-0.66-10.204-1.899-15H407c8.271,0,15,6.729,15,15S415.271,271,407,271z"/>
	</g>
	<g>
		
		<path d="M407,76H219.623C209.045,66.675,195.176,61,180,61c-15.176,0-29.045,5.675-39.623,15H105c-24.813,0-45,20.187-45,45
			s20.187,45,45,45h35.377c10.578,9.325,24.446,15,39.623,15s29.045-5.675,39.623-15H407c24.813,0,45-20.187,45-45
			S431.813,76,407,76z M121.899,136H105c-8.271,0-15-6.729-15-15s6.729-15,15-15h16.899c-1.239,4.796-1.899,9.822-1.899,15
			S120.66,131.204,121.899,136z M180,151c-16.542,0-30-13.458-30-30s13.458-30,30-30s30,13.458,30,30S196.542,151,180,151z M407,136
			H238.101c1.239-4.796,1.899-9.822,1.899-15s-0.66-10.204-1.899-15H407c8.271,0,15,6.729,15,15S415.271,136,407,136z"/>
		
	</g>
</svg>
