<svg width="0" height="0" class="hidden">
  <symbol xmlns="http://www.w3.org/2000/svg" viewBox="0 0 31.49 31.49" id="icon__arrow_right">
    <path d="M21.205 5.007a1.112 1.112 0 0 0-1.587 0 1.12 1.12 0 0 0 0 1.571l8.047 8.047H1.111A1.106 1.106 0 0 0 0 15.737c0 .619.492 1.127 1.111 1.127h26.554l-8.047 8.032c-.429.444-.429 1.159 0 1.587a1.112 1.112 0 0 0 1.587 0l9.952-9.952a1.093 1.093 0 0 0 0-1.571l-9.952-9.953z"></path>
  </symbol>
  <symbol xmlns="http://www.w3.org/2000/svg" viewBox="0 0 315.944 315.943" id="icon__cards">
    <path d="M198.587 206.706c.231.031.464.047.696.047.774 0 1.539-.168 2.246-.49l111.254-50.746a5.397 5.397 0 0 0 3.043-6.033 5.412 5.412 0 0 0-5.231-4.282c-.907-.011-90.988-1.928-130.961-81.815-3.775-7.539-13.067-12.042-21.097-10.115L65.675 75.646c-4.482 1.081-8.052 3.937-9.79 7.831-1.701 3.807-1.463 8.234.648 12.149 16.13 29.953 62.267 100.723 142.054 111.08zM65.739 87.882c.364-.81 1.26-1.448 2.463-1.732l92.865-22.373a6.087 6.087 0 0 1 1.45-.169c2.984 0 6.117 1.943 7.456 4.617 30.987 61.923 89.817 80.18 120.604 85.554L198.456 195.8c-73.915-10.421-117.192-76.998-132.43-105.29-.356-.679-.701-1.689-.287-2.628zM0 251.726h196.331v11.385H0zm310.542-38.987v-11.381l-111.28 50.368v11.39z"></path>
    <path d="M310.542 197.383h-28.931l-83.014 39.624-3.618.016c-50.195 0-90.624-8.88-120.849-19.311L0 247.586h196.673l113.869-50.203z"></path>
    <path d="M21.146 181.398c21.574 13.632 81.923 45.331 176.217 44.788l109.877-52.445s-5.922.032-15.625-.253l-93.894 42.831-1.534-.2c-53.687-6.972-92.027-41.212-116.105-71.542l-57.997 26.259c-5.431 2.463-5.982 7.378-.939 10.562z"></path>
  </symbol>
  <symbol xmlns="http://www.w3.org/2000/svg" viewBox="0 0 55 55" id="icon__close">
    <path d="M28.228 23.986L47.092 5.122a2.998 2.998 0 0 0 0-4.242 2.998 2.998 0 0 0-4.242 0L23.986 19.744 5.121.88a2.998 2.998 0 0 0-4.242 0 2.998 2.998 0 0 0 0 4.242l18.865 18.864L.879 42.85a2.998 2.998 0 1 0 4.242 4.241l18.865-18.864L42.85 47.091c.586.586 1.354.879 2.121.879s1.535-.293 2.121-.879a2.998 2.998 0 0 0 0-4.242L28.228 23.986z"></path>
  </symbol>
  <symbol xmlns="http://www.w3.org/2000/svg" viewBox="0 0 612.002 612.002" id="icon__delete">
    <path d="M540.346 19.437H389.4C388.323 8.529 379.114 0 367.917 0H244.084c-11.201 0-20.405 8.529-21.489 19.437H71.655c-11.93 0-21.599 9.669-21.599 21.602v41.036c0 11.934 9.669 21.6 21.599 21.6h468.691c11.93 0 21.599-9.667 21.599-21.6V41.04c0-11.934-9.669-21.603-21.599-21.603zM95.34 590.403c0 11.923 9.665 21.599 21.599 21.599h378.127c11.934 0 21.599-9.674 21.599-21.599V145.167H95.34v445.236z"></path>
  </symbol>
  <symbol xmlns="http://www.w3.org/2000/svg" viewBox="0 0 512 512" id="icon__down_arrow">
    <path d="M506.157 132.386c-7.803-7.819-20.465-7.831-28.285-.029l-207.73 207.299c-7.799 7.798-20.486 7.797-28.299-.015L34.128 132.357c-7.819-7.803-20.481-7.79-28.285.029-7.802 7.819-7.789 20.482.029 28.284l207.701 207.27c11.701 11.699 27.066 17.547 42.433 17.547 15.358 0 30.719-5.846 42.405-17.533L506.128 160.67c7.818-7.802 7.831-20.465.029-28.284z"></path>
  </symbol>
  <symbol xmlns="http://www.w3.org/2000/svg" viewBox="0 0 528.899 528.899" id="icon__edit">
    <path d="M328.883 89.125l107.59 107.589-272.34 272.34L56.604 361.465l272.279-272.34zm189.23-25.948l-47.981-47.981c-18.543-18.543-48.653-18.543-67.259 0l-45.961 45.961 107.59 107.59 53.611-53.611c14.382-14.383 14.382-37.577 0-51.959zM.3 512.69c-1.958 8.812 5.998 16.708 14.811 14.565l119.891-29.069L27.473 390.597.3 512.69z"></path>
  </symbol>
  <symbol xmlns="http://www.w3.org/2000/svg" viewBox="0 0 443.52 443.52" id="icon__game_back">
    <path d="M143.492 221.863L336.226 29.129c6.663-6.664 6.663-17.468 0-24.132-6.665-6.662-17.468-6.662-24.132 0l-204.8 204.8c-6.662 6.664-6.662 17.468 0 24.132l204.8 204.8c6.78 6.548 17.584 6.36 24.132-.42 6.387-6.614 6.387-17.099 0-23.712L143.492 221.863z"></path>
  </symbol>
  <symbol xmlns="http://www.w3.org/2000/svg" viewBox="0 0 512 512" id="icon__game_options">
    <path d="M407 346H219.623c-10.578-9.325-24.446-15-39.623-15s-29.045 5.675-39.623 15H105c-24.813 0-45 20.187-45 45s20.187 45 45 45h35.377c10.578 9.325 24.446 15 39.623 15s29.045-5.675 39.623-15H407c24.813 0 45-20.187 45-45s-20.187-45-45-45zm-285.101 60H105c-8.271 0-15-6.729-15-15s6.729-15 15-15h16.899A59.897 59.897 0 0 0 120 391c0 5.178.66 10.204 1.899 15zM180 421c-16.542 0-30-13.458-30-30s13.458-30 30-30 30 13.458 30 30-13.458 30-30 30zm227-15H238.101A59.897 59.897 0 0 0 240 391c0-5.178-.66-10.204-1.899-15H407c8.271 0 15 6.729 15 15s-6.729 15-15 15zm0-195h-35.377c-10.578-9.325-24.446-15-39.623-15s-29.045 5.675-39.623 15H105c-24.813 0-45 20.187-45 45s20.187 45 45 45h187.377c10.578 9.325 24.446 15 39.623 15s29.045-5.675 39.623-15H407c24.813 0 45-20.187 45-45s-20.187-45-45-45zm-133.101 60H105c-8.271 0-15-6.729-15-15s6.729-15 15-15h168.899c-1.239 4.796-1.899 9.822-1.899 15s.66 10.204 1.899 15zM332 286c-16.542 0-30-13.458-30-30s13.458-30 30-30 30 13.458 30 30-13.458 30-30 30zm75-15h-16.899A59.897 59.897 0 0 0 392 256c0-5.178-.66-10.204-1.899-15H407c8.271 0 15 6.729 15 15s-6.729 15-15 15zm0-195H219.623C209.045 66.675 195.176 61 180 61c-15.176 0-29.045 5.675-39.623 15H105c-24.813 0-45 20.187-45 45s20.187 45 45 45h35.377c10.578 9.325 24.446 15 39.623 15s29.045-5.675 39.623-15H407c24.813 0 45-20.187 45-45s-20.187-45-45-45zm-285.101 60H105c-8.271 0-15-6.729-15-15s6.729-15 15-15h16.899c-1.239 4.796-1.899 9.822-1.899 15s.66 10.204 1.899 15zM180 151c-16.542 0-30-13.458-30-30s13.458-30 30-30 30 13.458 30 30-13.458 30-30 30zm227-15H238.101c1.239-4.796 1.899-9.822 1.899-15s-.66-10.204-1.899-15H407c8.271 0 15 6.729 15 15s-6.729 15-15 15z"></path>
  </symbol>
  <symbol xmlns="http://www.w3.org/2000/svg" viewBox="0 0 426.667 426.667" id="icon__img">
    <path d="M42.667 85.333H0V384c0 23.573 19.093 42.667 42.667 42.667h298.667V384H42.667V85.333z"></path>
    <path d="M384 0H128c-23.573 0-42.667 19.093-42.667 42.667v256c0 23.573 19.093 42.667 42.667 42.667h256c23.573 0 42.667-19.093 42.667-42.667v-256C426.667 19.093 407.573 0 384 0zM128 298.667l64-85.333 43.307 57.813L298.667 192 384 298.667H128z"></path>
  </symbol>
  <symbol xmlns="http://www.w3.org/2000/svg" viewBox="0 0 469.333 469.333" id="icon__menu">
    <path d="M53.333 106.667H416c29.417 0 53.333-23.927 53.333-53.333S445.417 0 416 0H53.333C23.917 0 0 23.927 0 53.333s23.917 53.334 53.333 53.334zM416 181.333H53.333C23.917 181.333 0 205.26 0 234.667S23.917 288 53.333 288H416c29.417 0 53.333-23.927 53.333-53.333S445.417 181.333 416 181.333zm0 181.334H53.333C23.917 362.667 0 386.594 0 416s23.917 53.333 53.333 53.333H416c29.417 0 53.333-23.927 53.333-53.333S445.417 362.667 416 362.667z"></path>
  </symbol>
  <symbol xmlns="http://www.w3.org/2000/svg" viewBox="0 0 55 55" id="icon__new_module">
    <path d="M49 8.5v-8H0v47h7v7h48v-46h-6zm-47 37v-43h45v6H7v37H2zm51 7H9v-42h44v42z"></path>
    <path d="M42 30.5H32v-10a1 1 0 1 0-2 0v10H20a1 1 0 1 0 0 2h10v10a1 1 0 1 0 2 0v-10h10a1 1 0 1 0 0-2z"></path>
  </symbol>
  <symbol xmlns="http://www.w3.org/2000/svg" viewBox="0 0 512 512" id="icon__shuffle">
    <path d="M506.24 371.7l-96-80c-4.768-4-11.424-4.8-17.024-2.208A16.02 16.02 0 0 0 384 303.988v48h-26.784c-22.208 0-42.496-11.264-54.272-30.08l-103.616-165.76c-23.52-37.664-64.096-60.16-108.544-60.16H0v64h90.784c22.208 0 42.496 11.264 54.272 30.08l103.616 165.76c23.552 37.664 64.128 60.16 108.544 60.16H384v48a16.02 16.02 0 0 0 9.216 14.496 16.232 16.232 0 0 0 6.784 1.504c3.68 0 7.328-1.248 10.24-3.712l96-80c3.68-3.04 5.76-7.552 5.76-12.288 0-4.736-2.08-9.248-5.76-12.288z"></path>
    <path d="M506.24 115.7l-96-80c-4.768-3.968-11.424-4.8-17.024-2.176C387.584 36.116 384 41.78 384 47.988v48h-26.784c-44.448 0-85.024 22.496-108.544 60.16l-5.792 9.28 37.728 60.384 22.336-35.744c11.776-18.816 32.064-30.08 54.272-30.08H384v48c0 6.208 3.584 11.872 9.216 14.496a16.232 16.232 0 0 0 6.784 1.504c3.68 0 7.328-1.28 10.24-3.712l96-80c3.68-3.04 5.76-7.552 5.76-12.288 0-4.736-2.08-9.248-5.76-12.288zM167.392 286.164l-22.304 35.744c-11.776 18.816-32.096 30.08-54.304 30.08H0v64h90.784c44.416 0 84.992-22.496 108.544-60.16l5.792-9.28-37.728-60.384z"></path>
  </symbol>
  <symbol xmlns="http://www.w3.org/2000/svg" viewBox="0 0 469.333 469.333" id="icon__speaker">
    <path d="M206.885 43.544c-3.875-1.698-8.448-.896-11.542 2.042L85.49 149.336H10.667A10.66 10.66 0 0 0 0 160.002v149.333a10.66 10.66 0 0 0 10.667 10.667H85.49l109.854 103.75a10.631 10.631 0 0 0 7.323 2.917c1.427 0 2.865-.281 4.219-.875a10.644 10.644 0 0 0 6.448-9.792V53.336a10.647 10.647 0 0 0-6.449-9.792zm55.567 131.34l-15.199 15.199c-3.505 3.505-4.44 9.168-1.513 13.168A53.056 53.056 0 0 1 256 234.669a53.05 53.05 0 0 1-10.26 31.417c-2.927 4-1.992 9.664 1.513 13.169l15.199 15.198c4.655 4.656 12.259 3.939 16.28-1.276 12.495-16.208 19.935-36.505 19.935-58.508 0-22.004-7.44-42.301-19.935-58.509-4.021-5.215-11.625-5.932-16.28-1.276zm75.971-60.309c-4.01-4.53-11.151-4.512-15.428-.234l-15.092 15.092c-4.043 4.042-4.005 10.395-.27 14.721 20.991 24.307 33.701 55.954 33.701 90.514 0 34.56-12.71 66.207-33.701 90.516-3.736 4.326-3.772 10.677.27 14.719l15.092 15.092c4.277 4.279 11.418 4.296 15.43-.233C366.771 322.755 384 280.686 384 234.669c0-46.018-17.229-88.087-45.577-120.094z"></path>
    <path d="M398.764 54.138c-4.082-4.43-11.151-4.417-15.409-.158l-15.112 15.112c-4.053 4.053-4.033 10.451-.167 14.685 36.376 39.84 58.59 92.822 58.59 150.892s-22.214 111.051-58.59 150.892c-3.865 4.234-3.887 10.632.167 14.685l15.112 15.111c4.259 4.26 11.328 4.272 15.41-.158 43.79-47.529 70.568-110.961 70.568-180.53 0-69.57-26.778-133.003-70.569-180.531z"></path>
  </symbol>
  <symbol id="icon__sprite"></symbol>
  <symbol xmlns="http://www.w3.org/2000/svg" viewBox="0 0 512 512" id="icon__tick">
    <path d="M504.502 75.496c-9.997-9.998-26.205-9.998-36.204 0L161.594 382.203 43.702 264.311c-9.997-9.998-26.205-9.997-36.204 0-9.998 9.997-9.998 26.205 0 36.203l135.994 135.992c9.994 9.997 26.214 9.99 36.204 0L504.502 111.7c9.998-9.997 9.997-26.206 0-36.204z"></path>
  </symbol>
  <symbol xmlns="http://www.w3.org/2000/svg" viewBox="0 0 490.661 490.661" id="icon__triangle_left">
    <path d="M453.331 1.424a10.738 10.738 0 0 0-10.688 0L37.309 236.091c-3.285 1.92-5.312 5.44-5.312 9.237s2.027 7.317 5.312 9.237l405.333 234.667a10.662 10.662 0 0 0 5.355 1.429 10.58 10.58 0 0 0 5.333-1.429 10.681 10.681 0 0 0 5.333-9.237V10.661a10.678 10.678 0 0 0-5.332-9.237z"></path>
  </symbol>
  <symbol xmlns="http://www.w3.org/2000/svg" viewBox="0 0 490.661 490.661" id="icon__triangle_right">
    <path d="M453.352 236.091L48.019 1.424c-3.285-1.899-7.36-1.899-10.688 0a10.681 10.681 0 0 0-5.333 9.237v469.333c0 3.819 2.048 7.339 5.333 9.237a10.802 10.802 0 0 0 5.333 1.429c1.856 0 3.691-.469 5.355-1.429l405.333-234.667c3.285-1.92 5.312-5.44 5.312-9.237s-2.027-7.338-5.312-9.236z"></path>
  </symbol>
  <symbol xmlns="http://www.w3.org/2000/svg" viewBox="0 0 25.588 25.588" id="icon__write">
    <path d="M18.724 9.903l3.855 1.416-3.206 8.729c-.3.821-1.927 3.39-3.06 3.914l-.275.75a.472.472 0 0 1-.603.28.47.47 0 0 1-.279-.604l.26-.709c-.575-1.117-.146-4.361.106-5.047l3.202-8.729zM24.303.667c-1.06-.388-2.301.414-2.656 1.383l-2.322 6.326 3.854 1.414 2.319-6.325c.292-.792-.133-2.409-1.195-2.798zm-6.975 8.909a.942.942 0 0 0 1.209-.555l2.45-6.608a.942.942 0 0 0-1.764-.653l-2.45 6.608a.94.94 0 0 0 .555 1.208zm-3.944 12.391c-.253-.239-.568-.537-1.078-.764-.42-.187-.829-.196-1.128-.203l-.103-.002c-.187-.512-.566-.834-1.135-.96-.753-.159-1.354.196-1.771.47.037-.21.098-.46.143-.64.144-.58.292-1.18.182-1.742a1.003 1.003 0 0 0-.914-.806c-1.165-.065-2.117.562-2.956 1.129-.881.595-1.446.95-2.008.749-.686-.244-.755-2.101-.425-3.755.295-1.49.844-4.264 2.251-5.524.474-.424 1.16-.883 1.724-.66.663.26 1.211 1.352 1.333 2.653a.996.996 0 0 0 1.089.902.999.999 0 0 0 .902-1.089c-.198-2.12-1.192-3.778-2.593-4.329-.839-.326-2.173-.414-3.79 1.033-1.759 1.575-2.409 4.246-2.88 6.625-.236 1.188-.811 5.13 1.717 6.029 1.54.549 2.791-.298 3.796-.976.184-.124.365-.246.541-.355-.167.725-.271 1.501.167 2.155.653.982 1.576 1.089 2.742.321.045-.029.097-.063.146-.097.108.226.299.475.646.645.42.206.84.216 1.146.224.131.003.31.007.364.031.188.083.299.185.515.389.162.153.333.312.55.476a1 1 0 0 0 1.198-1.601c-.145-.112-.26-.223-.371-.328z"></path>
  </symbol>
</svg>